<svg width="64" height="64" xmlns="http://www.w3.org/2000/svg"><g fill="none" fill-rule="evenodd"><path fill="#FFF" d="M-352-708h1440V747H-352z"/><path fill="#14797B" opacity=".802" d="M32 1l26.847 15.5v31L32 63 5.153 47.5v-31z"/><path fill="#14797B" d="M32 1l26.847 15.5-53.694 31v-31z"/><path d="M30.795 28.31h3.41V45h-3.41V28.31zM30 22.324c0-.634.246-1.18.739-1.637A2.498 2.498 0 0 1 32.5 20c.682 0 1.269.229 1.761.687.493.457.739 1.003.739 1.637 0 .634-.246 1.18-.739 1.637a2.498 2.498 0 0 1-1.761.687 2.498 2.498 0 0 1-1.761-.687c-.493-.457-.739-1.003-.739-1.637z" fill="#FFF"/></g></svg>