<svg width="64" height="64" xmlns="http://www.w3.org/2000/svg"><g fill="none" fill-rule="evenodd"><path fill="#FFF" d="M-528-708H912V747H-528z"/><path fill="#14797B" opacity=".802" d="M32 1l26.847 15.5v31L32 63 5.153 47.5v-31z"/><path fill="#14797B" d="M32 1l26.847 15.5-53.694 31v-31z"/><g fill="#FFF" fill-rule="nonzero"><path d="M38 20a1 1 0 0 1 1 1v22a1 1 0 0 1-1 1H20a1 1 0 0 1-1-1V21a1 1 0 0 1 1-1h18zm-3.75 10h-10.5c-.414 0-.75.224-.75.5s.336.5.75.5h10.5c.414 0 .75-.224.75-.5s-.336-.5-.75-.5zm-3.75-3h-7a.5.5 0 0 0 0 1h7a.5.5 0 1 0 0-1zm4-3h-11a.5.5 0 0 0 0 1h11a.5.5 0 1 0 0-1zM44.955 41l-.006 1.68a1 1 0 0 1-1 .997h-1.945a1 1 0 0 1-.993-.884l-.007-.12.005-1.673h3.946zm-1.88-16.327l.086.015a.503.503 0 0 1 .323.27l1.424 3.016a1 1 0 0 1 .096.431L44.959 40h-3.946l.045-11.599a1 1 0 0 1 .096-.423l1.426-3.02a.5.5 0 0 1 .408-.285h.086z"/></g></g></svg>